# xmcd
#
# Track frame offsets: 
#        182
#        11077
#        20667
#        31645
#        40487
#        49645
#        60497
#        69277
#        80615
#        90492
#        101657
#        113830
#        122152
#        136472
#        148047
#        158270
#
# Disc length: 2261 seconds
#
# Revision: 0
# Processed by: cddbd v1.4PL0 Copyright (c) Steve Scherf et al.
# Submitted via: ExactAudioCopy v0.90b3
#
DISCID=ca08d310
DTITLE=Eddy Arnold - Have guitar will travel
DYEAR=1995
DGENRE=Country
TTITLE0=Indiana
TTITLE1=Oklahoma hills
TTITLE2=Mister and mississippi
TTITLE3=Stars fell on Alabama
TTITLE4=Idaho
TTITLE5=Kentucky babe
TTITLE6=Missouri
TTITLE7=Carolina in the morning
TTITLE8=Carry me back to old Virginny
TTITLE9=On Miami shore
TTITLE10=Beautiful Ohio
TTITLE11=Georgia on my mind
TTITLE12=The streets of Laredo
TTITLE13=The kentuckian song
TTITLE14=Tennessee waltz
TTITLE15=Gotta travel on
EXTD=
EXTT0=
EXTT1=
EXTT2=
EXTT3=
EXTT4=
EXTT5=
EXTT6=
EXTT7=
EXTT8=
EXTT9=
EXTT10=
EXTT11=
EXTT12=
EXTT13=
EXTT14=
EXTT15=
PLAYORDER=
